HIERARCHY
ROOT Hips
{
	OFFSET 0.00000 0.00000 0.00000
	CHANNELS 6 Xposition Yposition Zposition Zrotation Yrotation Xrotation 
	JOINT LHipJoint
	{
		OFFSET 0 0 0
		CHANNELS 3 Zrotation Yrotation Xrotation
		JOINT LeftUpLeg
		{
			OFFSET 1.17584 -1.63585 1.00361
			CHANNELS 3 Zrotation Yrotation Xrotation
			JOINT LeftLeg
			{
				OFFSET 2.23889 -6.15131 0.00000
				CHANNELS 3 Zrotation Yrotation Xrotation
				JOINT LeftFoot
				{
					OFFSET 2.65161 -7.28525 0.00000
					CHANNELS 3 Zrotation Yrotation Xrotation
					JOINT LeftToeBase
					{
						OFFSET 0.24898 -0.68407 1.57235
						CHANNELS 3 Zrotation Yrotation Xrotation
						End Site
						{
							OFFSET 0.00000 -0.00000 0.85838
						}
					}
				}
			}
		}
	}
	JOINT RHipJoint
	{
		OFFSET 0 0 0
		CHANNELS 3 Zrotation Yrotation Xrotation
		JOINT RightUpLeg
		{
			OFFSET -1.15592 -1.63585 1.00361
			CHANNELS 3 Zrotation Yrotation Xrotation
			JOINT RightLeg
			{
				OFFSET -2.34071 -6.43104 0.00000
				CHANNELS 3 Zrotation Yrotation Xrotation
				JOINT RightFoot
				{
					OFFSET -2.59113 -7.11908 0.00000
					CHANNELS 3 Zrotation Yrotation Xrotation
					JOINT RightToeBase
					{
						OFFSET -0.17867 -0.49089 1.70981
						CHANNELS 3 Zrotation Yrotation Xrotation
						End Site
						{
							OFFSET -0.00000 -0.00000 0.89861
						}
					}
				}
			}
		}
	}
	JOINT LowerBack
	{
		OFFSET 0 0 0
		CHANNELS 3 Zrotation Yrotation Xrotation
		JOINT Spine
		{
			OFFSET -0.02255 1.90764 -0.16605
			CHANNELS 3 Zrotation Yrotation Xrotation
			JOINT Spine1
			{
				OFFSET -0.00365 1.92150 -0.04898
				CHANNELS 3 Zrotation Yrotation Xrotation
				JOINT Neck
				{
					OFFSET 0 0 0
					CHANNELS 3 Zrotation Yrotation Xrotation
					JOINT Neck1
					{
						OFFSET 0.00372 1.59170 0.08694
						CHANNELS 3 Zrotation Yrotation Xrotation
						JOINT Head
						{
							OFFSET 0.12558 1.58643 -0.08078
							CHANNELS 3 Zrotation Yrotation Xrotation
							End Site
							{
								OFFSET 0.04211 1.60835 -0.03803
							}
						}
					}
				}
				JOINT LeftShoulder
				{
					OFFSET 0 0 0
					CHANNELS 3 Zrotation Yrotation Xrotation
					JOINT LeftArm
					{
						OFFSET 3.69324 0.96316 0.19077
						CHANNELS 3 Zrotation Yrotation Xrotation
						JOINT LeftForeArm
						{
							OFFSET 4.87796 -0.00000 -0.00000
							CHANNELS 3 Zrotation Yrotation Xrotation
							JOINT LeftHand
							{
								OFFSET 3.23169 -0.00000 0.00000
								CHANNELS 3 Zrotation Yrotation Xrotation
								JOINT LeftFingerBase
								{
									OFFSET 0 0 0
									CHANNELS 3 Zrotation Yrotation Xrotation
									JOINT LeftHandIndex1
									{
										OFFSET 0.73132 -0.00000 0.00000
										CHANNELS 3 Zrotation Yrotation Xrotation
										End Site
										{
											OFFSET 0.58961 -0.00000 0.00000
										}
									}
								}
								JOINT LThumb
								{
									OFFSET 0 0 0
									CHANNELS 3 Zrotation Yrotation Xrotation
									End Site
									{
										OFFSET 0.59861 -0.00000 0.59861
									}
								}
							}
						}
					}
				}
				JOINT RightShoulder
				{
					OFFSET 0 0 0
					CHANNELS 3 Zrotation Yrotation Xrotation
					JOINT RightArm
					{
						OFFSET -3.66103 0.75145 0.08281
						CHANNELS 3 Zrotation Yrotation Xrotation
						JOINT RightForeArm
						{
							OFFSET -4.91430 -0.00000 0.00000
							CHANNELS 3 Zrotation Yrotation Xrotation
							JOINT RightHand
							{
								OFFSET -3.29093 -0.00000 0.00000
								CHANNELS 3 Zrotation Yrotation Xrotation
								JOINT RightFingerBase
								{
									OFFSET 0 0 0
									CHANNELS 3 Zrotation Yrotation Xrotation
									JOINT RightHandIndex1
									{
										OFFSET -0.54512 -0.00000 0.00000
										CHANNELS 3 Zrotation Yrotation Xrotation
										End Site
										{
											OFFSET -0.43949 -0.00000 0.00000
										}
									}
								}
								JOINT RThumb
								{
									OFFSET 0 0 0
									CHANNELS 3 Zrotation Yrotation Xrotation
									End Site
									{
										OFFSET -0.44620 -0.00000 0.44620
									}
								}
							}
						}
					}
				}
			}
		}
	}
}
MOTION
Frames: 15
Frame Time: .0083333
-3.4711 16.3946 -0.087 0 0 0 0 0 0 -21 0 0 0 0 0 0 0 0 0 0 0 0 0 0 21 0 0 0 0 0 0 0 0 0 0 0 0 0 0 0 0 0 0 0 0 0 0 -16 0 0 21 0 0 11 0 0 0 -8 0 0 0 0 0 0 0 0 0 0 0 0 0 0 0 0 0 0 0 0 8 0 0 0 0 0 0 0 0 0 0 0 0 0 0 0 0 0
-3.4711 16.3946 -0.0870 109.5510 -86.1435 -105.9900 0.0000 0.0000 0.0000 -14.5190 -3.4892 -16.8748 3.7487 11.8183 35.0923 2.2012 6.1773 -30.7662 0.8422 -5.8539 -16.3611 0.0000 0.0000 0.0000 7.1772 6.6122 -14.7862 -4.4558 -12.7434 38.4153 -2.0450 -9.7011 -31.9280 -0.1290 2.3156 -6.3786 -3.6750 0.0561 -9.4638 -2.2089 0.6251 1.4182 -0.1602 0.1956 6.8014 -4.9016 -1.6740 -3.3333 11.4483 -2.2642 -0.5085 4.6385 -1.0967 0.6477 -0.0000 -0.0000 0.0000 -88.9554 3.2299 26.7628 40.2456 -48.2147 -18.6222 -0.0000 -0.0000 13.7436 47.8262 -14.9344 -15.8799 -7.1250 0.0000 -0.0000 13.1128 8.7613 -11.2697 -0.0000 -0.0000 0.0000 91.9303 -4.2159 22.9285 -40.0514 48.1003 -18.4774 0.0000 -0.0000 -8.2532 -22.7672 -31.1353 12.2436 7.1250 -0.0000 -0.0000 10.8580 -62.8899 -4.7462
-3.4721 16.3943 -0.0873 109.1350 -86.0733 -105.5830 0.0000 0.0000 0.0000 -14.6045 -3.5060 -16.8447 3.7483 11.8177 35.0902 2.2144 6.0392 -30.7736 0.8090 -5.7400 -16.0319 0.0000 0.0000 0.0000 7.0832 6.5547 -14.7785 -4.4529 -12.7398 38.4022 -2.0636 -9.5602 -31.9468 -0.1210 2.2421 -6.1751 -3.7224 0.0620 -9.4513 -2.2444 0.6390 1.4100 -0.1689 0.2012 6.7853 -4.9445 -1.6359 -3.4528 11.5229 -2.2224 -0.3670 4.6751 -1.0692 0.7135 0.0000 -0.0000 0.0000 -88.9274 3.1712 26.5945 40.6509 -48.4508 -18.9249 -0.0000 -0.0000 12.0799 45.7959 -16.0048 -15.8274 -7.1250 0.0000 -0.0000 11.6269 7.9884 -10.1143 0.0000 -0.0000 0.0000 91.9271 -4.2038 22.8575 -40.0147 48.0786 -18.4502 0.0000 -0.0000 -8.1087 -22.2489 -31.3327 12.0095 7.1250 -0.0000 -0.0000 11.6015 -62.9505 -5.0922
-3.4747 16.3935 -0.0871 108.4630 -85.9586 -104.9410 0.0000 0.0000 0.0000 -14.7534 -3.5215 -16.7583 3.7394 11.8053 35.0465 2.2185 5.9361 -30.7441 0.7602 -5.5681 -15.5364 0.0000 0.0000 0.0000 6.9254 6.4420 -14.7691 -4.4585 -12.7467 38.4277 -2.0803 -9.4024 -31.9439 -0.1172 2.2067 -6.0773 -3.8126 0.0648 -9.4092 -2.2934 0.6515 1.3827 -0.1679 0.2051 6.7319 -4.8887 -1.6702 -3.2827 11.4723 -2.2670 -0.4374 4.6449 -1.0980 0.6622 -0.0000 -0.0000 0.0000 -88.8933 3.1660 26.4149 41.0792 -48.6964 -19.2460 -0.0000 -0.0000 10.4269 43.6570 -16.9542 -15.5491 -7.1250 0.0000 -0.0000 10.1060 7.4212 -8.8586 -0.0000 -0.0000 0.0000 91.9180 -4.2417 22.7893 -40.0017 48.0709 -18.4405 0.0000 -0.0000 -7.9800 -21.6478 -31.5652 11.7368 7.1250 -0.0000 -0.0000 12.4687 -63.0228 -5.5000
-3.4766 16.3928 -0.0876 107.8220 -85.8649 -104.3200 0.0000 0.0000 0.0000 -14.8764 -3.5342 -16.7284 3.7359 11.8004 35.0297 2.1861 6.1248 -30.6453 0.7997 -5.7077 -15.9386 0.0000 0.0000 0.0000 6.8063 6.4068 -14.7539 -4.4605 -12.7493 38.4370 -2.0795 -9.4011 -31.9383 -0.1252 2.2807 -6.2822 -3.9027 0.0569 -9.3496 -2.3206 0.6465 1.3350 -0.1464 0.2009 6.6467 -4.8792 -1.6871 -3.0712 11.4472 -2.2856 -0.5316 4.6345 -1.1152 0.5944 -0.0000 0.0000 0.0000 -88.9117 3.1925 26.2002 41.4696 -48.9169 -19.5398 -0.0000 -0.0000 8.9142 41.4935 -17.7460 -15.0882 -7.1250 0.0000 -0.0000 8.6064 7.0606 -7.5714 -0.0000 0.0000 0.0000 91.8957 -4.3467 22.7937 -40.0340 48.0900 -18.4645 0.0000 -0.0000 -7.9856 -21.5889 -31.6521 11.7307 7.1250 -0.0000 -0.0000 12.6015 -63.0930 -5.5803
-3.4781 16.3922 -0.0877 107.5530 -85.8620 -104.0330 0.0000 0.0000 0.0000 -14.8866 -3.5464 -16.7567 3.7360 11.8006 35.0300 2.1574 6.3223 -30.5752 0.8626 -5.9223 -16.5592 0.0000 0.0000 0.0000 6.8085 6.4390 -14.7544 -4.4605 -12.7492 38.4369 -2.0623 -9.5341 -31.9217 -0.1417 2.4263 -6.6854 -3.8938 0.0477 -9.3487 -2.3200 0.6318 1.3070 -0.1528 0.1946 6.6170 -4.8054 -1.6430 -3.1407 11.3676 -2.2359 -0.4018 4.5910 -1.0855 0.6419 -0.0000 0.0000 0.0000 -88.9531 3.1550 25.9417 41.8523 -49.1298 -19.8287 -0.0000 -0.0000 7.3319 39.1972 -18.5475 -14.5422 -7.1250 0.0000 -0.0000 7.0254 6.7167 -6.2035 -0.0000 0.0000 0.0000 91.8914 -4.4200 22.7897 -40.0490 48.0989 -18.4757 0.0000 -0.0000 -7.8927 -21.5869 -31.4633 11.6686 7.1250 -0.0000 -0.0000 12.4640 -62.9063 -5.4638
-3.4762 16.3925 -0.0883 107.9590 -85.9829 -104.3800 0.0000 0.0000 0.0000 -14.7349 -3.5501 -16.8365 3.7394 11.8053 35.0465 2.1783 6.2151 -30.6457 0.8488 -5.8761 -16.4254 0.0000 0.0000 0.0000 6.9781 6.5969 -14.7555 -4.4576 -12.7457 38.4237 -2.0527 -9.6779 -31.9584 -0.1402 2.4134 -6.6495 -3.7516 0.0538 -9.3843 -2.2957 0.6248 1.3050 -0.2079 0.1963 6.6360 -4.6860 -1.5952 -3.1517 11.2968 -2.1733 -0.4174 4.5421 -1.0548 0.6301 -0.0000 0.0000 0.0000 -88.9706 3.0101 25.6918 42.1680 -49.3031 -20.0678 -0.0000 -0.0000 5.8329 36.9141 -19.1503 -13.8437 -7.1250 0.0000 -0.0000 5.4923 6.5931 -4.8483 -0.0000 0.0000 0.0000 91.8983 -4.3787 22.7819 -40.0314 48.0885 -18.4626 0.0000 -0.0000 -7.7917 -21.6120 -31.2341 11.6087 7.1250 -0.0000 -0.0000 12.2686 -62.6864 -5.3133
-3.4744 16.3929 -0.0892 108.0760 -86.0550 -104.4730 0.0000 0.0000 0.0000 -14.6443 -3.5221 -16.8874 3.7433 11.8108 35.0658 2.2032 6.0749 -30.7238 0.8222 -5.7856 -16.1635 0.0000 0.0000 0.0000 7.0679 6.6848 -14.7394 -4.4532 -12.7402 38.4035 -2.0762 -9.6182 -32.0600 -0.1196 2.2297 -6.1410 -3.6364 0.0797 -9.3559 -2.3069 0.6447 1.2891 -0.2812 0.2112 6.6036 -4.5827 -1.5812 -3.0785 11.2845 -2.1563 -0.4687 4.5174 -1.0501 0.5969 -0.0000 0.0000 0.0000 -88.9282 2.8803 25.2967 43.0429 -49.7729 -20.7335 -0.0000 -0.0000 2.7175 32.0505 -19.5539 -11.8351 -7.1250 0.0000 -0.0000 2.3669 7.2598 -2.0506 -0.0000 0.0000 0.0000 91.9340 -4.3731 22.7389 -40.0633 48.1074 -18.4864 0.0000 -0.0000 -7.8210 -21.7463 -31.2355 11.6865 7.1250 -0.0000 -0.0000 12.1146 -62.7227 -5.2559
-3.4785 16.3929 -0.0881 107.1900 -85.9519 -103.6270 0.0000 0.0000 0.0000 -14.7850 -3.4979 -16.8407 3.7459 11.8143 35.0782 2.2006 6.0558 -30.6978 0.7974 -5.6998 -15.9158 0.0000 0.0000 0.0000 6.9128 6.5428 -14.6992 -4.4483 -12.7342 38.3814 -2.0953 -9.4677 -32.0760 -0.1136 2.1728 -5.9834 -3.7245 0.0779 -9.3448 -2.3401 0.6536 1.3014 -0.2656 0.2123 6.6099 -4.4455 -1.5949 -3.1362 11.1547 -2.1813 -0.4004 4.4415 -1.0596 0.6274 0.0000 0.0000 0.0000 -88.9383 2.9340 25.3323 43.0764 -49.7905 -20.7590 -0.0000 -0.0000 2.7869 32.1675 -19.4700 -11.8397 -7.1250 0.0000 -0.0000 2.4533 7.3298 -2.1223 0.0000 0.0000 0.0000 91.9155 -4.3641 22.7267 -40.1012 48.1297 -18.5145 0.0000 -0.0000 -7.8458 -21.7964 -31.4188 11.7754 7.1250 -0.0000 -0.0000 12.1891 -62.9171 -5.3444
-3.4828 16.3926 -0.0870 106.3200 -85.8467 -102.7890 0.0000 0.0000 0.0000 -14.9282 -3.5176 -16.7825 3.7449 11.8129 35.0734 2.1932 6.1173 -30.6852 0.7969 -5.6980 -15.9107 0.0000 0.0000 0.0000 6.7681 6.4355 -14.6583 -4.4454 -12.7307 38.3684 -2.1010 -9.4067 -32.0701 -0.1166 2.2019 -6.0639 -3.8868 0.0354 -9.3967 -2.3151 0.6191 1.3449 -0.1537 0.1874 6.6850 -4.4689 -1.6067 -3.2235 11.1014 -2.1954 -0.3664 4.4261 -1.0632 0.6548 -0.0000 -0.0000 0.0000 -89.0501 2.9272 25.2870 43.0936 -49.7996 -20.7722 -0.0000 -0.0000 2.8281 32.2430 -19.4523 -11.8633 -7.1250 0.0000 -0.0000 2.5038 7.3336 -2.1659 -0.0000 -0.0000 0.0000 91.7626 -4.2605 22.8460 -40.0376 48.0921 -18.4672 0.0000 -0.0000 -7.8868 -21.8112 -31.4795 11.8038 7.1250 -0.0000 -0.0000 12.2162 -62.9810 -5.3748
-3.4861 16.3927 -0.0855 105.7320 -85.8674 -102.1810 0.0000 0.0000 0.0000 -14.9256 -3.5622 -16.7692 3.7416 11.8083 35.0573 2.2003 6.1640 -30.7536 0.8167 -5.7668 -16.1092 0.0000 0.0000 0.0000 6.7547 6.2741 -14.7084 -4.4453 -12.7305 38.3677 -2.1010 -9.3312 -32.0216 -0.1204 2.2372 -6.1617 -3.8750 0.0003 -9.4708 -2.2860 0.5751 1.3704 -0.1365 0.1648 6.7553 -4.4650 -1.6089 -3.2967 11.0680 -2.1982 -0.3417 4.4127 -1.0620 0.6756 0.0000 0.0000 0.0000 -89.0658 2.9178 25.2954 43.1257 -49.8165 -20.7967 -0.0000 -0.0000 2.7475 32.2152 -19.4246 -11.8351 -7.1250 0.0000 -0.0000 2.4903 7.3709 -2.1523 0.0000 0.0000 0.0000 91.7199 -4.2462 22.9191 -40.0475 48.0980 -18.4746 0.0000 -0.0000 -7.9004 -21.8887 -31.4320 11.8333 7.1250 -0.0000 -0.0000 12.0918 -62.9544 -5.3117
-3.4873 16.3939 -0.0849 105.5060 -85.9321 -101.9200 0.0000 0.0000 0.0000 -14.8580 -3.5842 -16.7944 3.7394 11.8053 35.0467 2.2088 6.1216 -30.7831 0.8123 -5.7513 -16.0644 0.0000 0.0000 0.0000 6.8079 6.1904 -14.7658 -4.4459 -12.7312 38.3706 -2.0964 -9.3178 -31.9854 -0.1192 2.2255 -6.1294 -3.7802 -0.0040 -9.4919 -2.2865 0.5586 1.3434 -0.1925 0.1609 6.7397 -4.2378 -1.6081 -3.1591 10.8312 -2.1948 -0.4320 4.2820 -1.0666 0.6137 -0.0000 -0.0000 0.0000 -88.9795 2.9932 25.3666 43.2002 -49.8557 -20.8537 -0.0000 -0.0000 2.6999 32.1350 -19.3611 -11.7634 -7.1250 0.0000 -0.0000 2.4487 7.4601 -2.1121 -0.0000 -0.0000 0.0000 91.8214 -4.3409 22.8756 -40.1259 48.1443 -18.5329 0.0000 -0.0000 -7.7758 -22.0209 -31.4380 11.9120 7.1250 -0.0000 -0.0000 11.9425 -62.9951 -5.2566
-3.4857 16.3926 -0.0863 105.7950 -85.9761 -102.1840 0.0000 0.0000 0.0000 -14.7952 -3.5646 -16.8360 3.7381 11.8034 35.0401 2.1977 6.1083 -30.7077 0.8437 -5.8588 -16.3753 0.0000 0.0000 0.0000 6.8795 6.3241 -14.7599 -4.4475 -12.7332 38.3777 -2.1038 -9.3663 -32.0611 -0.1086 2.1247 -5.8505 -3.7194 0.0089 -9.4360 -2.2884 0.5628 1.2797 -0.2274 0.1671 6.6402 -4.1058 -1.5988 -3.0029 10.6962 -2.1822 -0.4779 4.2081 -1.0658 0.5654 0.0000 -0.0000 0.0000 -88.8992 3.1026 25.4498 43.2528 -49.8833 -20.8939 -0.0000 -0.0000 2.6666 32.0463 -19.3178 -11.6996 -7.1250 0.0000 -0.0000 2.3988 7.5279 -2.0657 0.0000 -0.0000 0.0000 91.8923 -4.4370 22.8301 -40.1502 48.1587 -18.5511 0.0000 -0.0000 -7.6533 -22.1185 -31.3529 11.9405 7.1250 -0.0000 -0.0000 11.7676 -62.9363 -5.1622
-3.4854 16.3906 -0.0865 106.0980 -86.0032 -102.4690 0.0000 0.0000 0.0000 -14.7564 -3.5530 -16.8664 3.7373 11.8024 35.0366 2.1790 6.1710 -30.6263 0.9085 -6.0738 -16.9988 0.0000 0.0000 0.0000 6.9243 6.4388 -14.7460 -4.4489 -12.7349 38.3842 -2.1174 -9.3603 -32.1378 -0.0951 1.9885 -5.4739 -3.6500 0.0273 -9.4107 -2.2987 0.5775 1.2567 -0.2747 0.1778 6.6016 -4.0010 -1.6051 -3.0017 10.6038 -2.1934 -0.4667 4.1538 -1.0714 0.5666 0.0000 -0.0000 0.0000 -88.7950 3.1072 25.5657 43.2361 -49.8745 -20.8811 -0.0000 -0.0000 2.6677 32.0244 -19.2646 -11.6599 -7.1250 0.0000 -0.0000 2.3927 7.5928 -2.0574 0.0000 -0.0000 0.0000 91.9251 -4.4201 22.7902 -40.0936 48.1253 -18.5089 0.0000 -0.0000 -7.6148 -22.0928 -31.1998 11.8747 7.1250 -0.0000 -0.0000 11.6880 -62.7776 -5.0832
-3.4857 16.3910 -0.0865 106.2320 -86.0361 -102.5730 0.0000 0.0000 0.0000 -14.7074 -3.5655 -16.9079 3.7348 11.7989 35.0242 2.1752 6.1880 -30.6123 0.8995 -6.0445 -16.9136 0.0000 0.0000 0.0000 6.9665 6.4969 -14.7632 -4.4519 -12.7387 38.3979 -2.1152 -9.3949 -32.1470 -0.0904 1.9395 -5.3384 -3.5700 0.0401 -9.4061 -2.3196 0.5852 1.2371 -0.3403 0.1854 6.5789 -3.8294 -1.6419 -2.9641 10.4444 -2.2467 -0.4548 4.0617 -1.0991 0.5627 -0.0000 -0.0000 0.0000 -88.6862 3.1244 25.6309 43.2515 -49.8826 -20.8929 -0.0000 -0.0000 2.7786 32.0766 -19.2660 -11.6836 -7.1250 0.0000 -0.0000 2.4255 7.5802 -2.0863 -0.0000 -0.0000 0.0000 91.9648 -4.3821 22.7725 -40.0038 48.0722 -18.4421 0.0000 -0.0000 -7.6150 -22.0117 -31.2449 11.8428 7.1250 -0.0000 -0.0000 11.8143 -62.8013 -5.1455
